<mxfile host="app.diagrams.net" modified="2022-12-20T10:02:30.349Z" agent="5.0 (Windows NT 10.0; Win64; x64) AppleWebKit/537.36 (KHTML, like Gecko) Chrome/108.0.0.0 Safari/537.36 Edg/108.0.1462.46" version="20.7.4" etag="8FKbkJtPgNEck3Xt87g9" type="github">
  <diagram id="xqAPjbka55mVBrEuICDM" name="第 1 页">
    <mxGraphModel dx="744" dy="414" grid="1" gridSize="10" guides="1" tooltips="1" connect="1" arrows="1" fold="1" page="1" pageScale="1" pageWidth="827" pageHeight="1169" math="0" shadow="0">
      <root>
        <mxCell id="0" />
        <mxCell id="1" parent="0" />
        <mxCell id="Kna3-e6-a0S8VPZGYnq1-1" value="时间范围" style="rounded=1;whiteSpace=wrap;html=1;" vertex="1" parent="1">
          <mxGeometry x="160" y="260" width="80" height="30" as="geometry" />
        </mxCell>
        <mxCell id="Kna3-e6-a0S8VPZGYnq1-2" value="空间范围" style="rounded=1;whiteSpace=wrap;html=1;" vertex="1" parent="1">
          <mxGeometry x="160" y="310" width="80" height="30" as="geometry" />
        </mxCell>
        <mxCell id="Kna3-e6-a0S8VPZGYnq1-3" value="数据类型" style="rounded=1;whiteSpace=wrap;html=1;" vertex="1" parent="1">
          <mxGeometry x="160" y="360" width="80" height="30" as="geometry" />
        </mxCell>
        <mxCell id="Kna3-e6-a0S8VPZGYnq1-5" value="查询结果" style="rounded=1;whiteSpace=wrap;html=1;" vertex="1" parent="1">
          <mxGeometry x="290" y="310" width="80" height="30" as="geometry" />
        </mxCell>
        <mxCell id="Kna3-e6-a0S8VPZGYnq1-15" value="" style="edgeStyle=orthogonalEdgeStyle;rounded=0;orthogonalLoop=1;jettySize=auto;html=1;" edge="1" parent="1" source="Kna3-e6-a0S8VPZGYnq1-14">
          <mxGeometry relative="1" as="geometry">
            <mxPoint x="290" y="325" as="targetPoint" />
            <Array as="points" />
          </mxGeometry>
        </mxCell>
        <mxCell id="Kna3-e6-a0S8VPZGYnq1-14" value="" style="strokeWidth=2;html=1;shape=mxgraph.flowchart.annotation_1;align=left;pointerEvents=1;direction=west;" vertex="1" parent="1">
          <mxGeometry x="240" y="277.5" width="10" height="95" as="geometry" />
        </mxCell>
        <mxCell id="Kna3-e6-a0S8VPZGYnq1-16" value="" style="strokeWidth=2;html=1;shape=mxgraph.flowchart.annotation_2;align=left;labelPosition=right;pointerEvents=1;" vertex="1" parent="1">
          <mxGeometry x="370" y="275" width="20" height="100" as="geometry" />
        </mxCell>
        <mxCell id="Kna3-e6-a0S8VPZGYnq1-17" value="数据列表" style="rounded=1;whiteSpace=wrap;html=1;" vertex="1" parent="1">
          <mxGeometry x="390" y="260" width="80" height="30" as="geometry" />
        </mxCell>
        <mxCell id="Kna3-e6-a0S8VPZGYnq1-18" value="数据范围" style="rounded=1;whiteSpace=wrap;html=1;" vertex="1" parent="1">
          <mxGeometry x="390" y="360" width="80" height="30" as="geometry" />
        </mxCell>
        <mxCell id="Kna3-e6-a0S8VPZGYnq1-20" value="显示对应图层" style="rounded=1;whiteSpace=wrap;html=1;" vertex="1" parent="1">
          <mxGeometry x="520" y="310" width="80" height="30" as="geometry" />
        </mxCell>
        <mxCell id="Kna3-e6-a0S8VPZGYnq1-21" value="查询" style="text;html=1;align=center;verticalAlign=middle;resizable=0;points=[];autosize=1;strokeColor=none;fillColor=none;" vertex="1" parent="1">
          <mxGeometry x="240" y="300" width="50" height="30" as="geometry" />
        </mxCell>
        <mxCell id="Kna3-e6-a0S8VPZGYnq1-23" value="勾选" style="text;html=1;align=center;verticalAlign=middle;resizable=0;points=[];autosize=1;strokeColor=none;fillColor=none;rotation=45;" vertex="1" parent="1">
          <mxGeometry x="470" y="270" width="50" height="30" as="geometry" />
        </mxCell>
        <mxCell id="Kna3-e6-a0S8VPZGYnq1-24" value="" style="endArrow=classic;html=1;rounded=0;exitX=1.01;exitY=0.527;exitDx=0;exitDy=0;exitPerimeter=0;" edge="1" parent="1" source="Kna3-e6-a0S8VPZGYnq1-18">
          <mxGeometry width="50" height="50" relative="1" as="geometry">
            <mxPoint x="480" y="380" as="sourcePoint" />
            <mxPoint x="520" y="330" as="targetPoint" />
          </mxGeometry>
        </mxCell>
        <mxCell id="Kna3-e6-a0S8VPZGYnq1-26" value="" style="endArrow=classic;html=1;rounded=0;exitX=1;exitY=0.5;exitDx=0;exitDy=0;" edge="1" parent="1" source="Kna3-e6-a0S8VPZGYnq1-17">
          <mxGeometry width="50" height="50" relative="1" as="geometry">
            <mxPoint x="480.79999999999995" y="385.81000000000006" as="sourcePoint" />
            <mxPoint x="520" y="320" as="targetPoint" />
          </mxGeometry>
        </mxCell>
        <mxCell id="Kna3-e6-a0S8VPZGYnq1-27" value="点击" style="text;html=1;align=center;verticalAlign=middle;resizable=0;points=[];autosize=1;strokeColor=none;fillColor=none;rotation=-45;" vertex="1" parent="1">
          <mxGeometry x="480" y="342.5" width="50" height="30" as="geometry" />
        </mxCell>
      </root>
    </mxGraphModel>
  </diagram>
</mxfile>
